<?xml version="1.0" standalone="no"?><!DOCTYPE svg PUBLIC "-//W3C//DTD SVG 1.1//EN" "http://www.w3.org/Graphics/SVG/1.1/DTD/svg11.dtd"><svg t="1715149937850" class="icon" viewBox="0 0 1024 1024" version="1.1" xmlns="http://www.w3.org/2000/svg" p-id="5077" xmlns:xlink="http://www.w3.org/1999/xlink" width="128" height="128"><path d="M531.2 341.333333L170.666667 704c-8.533333 8.533333-21.333333 8.533333-29.866667 0-8.533333-8.533333-8.533333-21.333333 0-29.866667l362.666667-362.666666c8.533333-8.533333 21.333333-8.533333 29.866666 0 6.4 8.533333 6.4 21.333333-2.133333 29.866666z" p-id="5078" fill="#515151"></path><path d="M864 704l-362.666667-362.666667c-8.533333-8.533333-8.533333-21.333333 0-29.866666 8.533333-8.533333 21.333333-8.533333 29.866667 0l362.666667 362.666666c8.533333 8.533333 8.533333 21.333333 0 29.866667-6.4 6.4-21.333333 6.4-29.866667 0z" p-id="5079" fill="#515151"></path></svg>