<?xml version="1.0" standalone="no"?><!DOCTYPE svg PUBLIC "-//W3C//DTD SVG 1.1//EN" "http://www.w3.org/Graphics/SVG/1.1/DTD/svg11.dtd"><svg t="1715149964974" class="icon" viewBox="0 0 1024 1024" version="1.1" xmlns="http://www.w3.org/2000/svg" p-id="5336" xmlns:xlink="http://www.w3.org/1999/xlink" width="128" height="128"><path d="M503.466667 672l362.666666-362.666667c8.533333-8.533333 21.333333-8.533333 29.866667 0 8.533333 8.533333 8.533333 21.333333 0 29.866667L533.333333 704c-8.533333 8.533333-21.333333 8.533333-29.866666 0-8.533333-8.533333-8.533333-23.466667 0-32z" p-id="5337" fill="#515151"></path><path d="M170.666667 311.466667l362.666666 362.666666c8.533333 8.533333 8.533333 21.333333 0 29.866667-8.533333 8.533333-21.333333 8.533333-29.866666 0l-362.666667-362.666667c-8.533333-8.533333-8.533333-21.333333 0-29.866666 6.4-8.533333 21.333333-8.533333 29.866667 0z" p-id="5338" fill="#515151"></path></svg>