<svg width="36" height="36" viewBox="0 0 36 36" fill="none" xmlns="http://www.w3.org/2000/svg">
<path d="M15.0244 23.0495L15.9347 24.0079V18.3708H15.5442L15.0244 23.0495ZM15.9432 18.3708V24.0079L16.8535 23.0495L16.3337 18.3708H15.9432Z" fill="black"/>
<path d="M26.0392 23.1825H27.2309C27.7369 23.1825 27.9899 23.4316 27.9899 23.9298C27.9899 24.4281 27.7369 24.6772 27.2309 24.6772H26.0392C25.5333 24.6772 25.2803 24.4281 25.2803 23.9298C25.2803 23.4316 25.5333 23.1825 26.0392 23.1825Z" fill="black"/>
<path d="M18.8834 17.3867C19.9964 16.5271 20.7142 15.1926 20.7142 13.6954C20.7142 11.1061 18.5754 9 15.946 9C13.3165 9 11.1787 11.107 11.1787 13.6963C11.1787 15.1942 11.8972 16.5269 13.0094 17.3876C10.0791 18.5403 8 21.3603 8 24.6523V26.2176C7.99994 26.3204 8.02045 26.4221 8.06036 26.5171C8.10027 26.612 8.15879 26.6983 8.23258 26.771C8.30638 26.8436 8.39399 26.9013 8.49042 26.9406C8.58685 26.9799 8.69019 27.0001 8.79455 27H23.0995C23.2038 27.0001 23.3072 26.9799 23.4036 26.9406C23.5 26.9013 23.5876 26.8436 23.6614 26.771C23.7352 26.6983 23.7937 26.612 23.8337 26.5171C23.8736 26.4221 23.8941 26.3204 23.894 26.2176V24.6523C23.894 21.3593 21.8159 18.5403 18.8834 17.3867ZM15.9471 10.5662C17.7002 10.5662 19.126 11.97 19.126 13.6965C19.126 15.4231 17.7002 16.8266 15.9471 16.8266C14.194 16.8266 12.768 15.4226 12.768 13.6963C12.768 11.97 14.1938 10.566 15.9469 10.566L15.9471 10.5662ZM22.3047 25.435H9.5891V24.6523C9.5891 21.2003 12.4414 18.3919 15.9476 18.3919C19.4538 18.3919 22.3047 21.2003 22.3047 24.6523V25.435ZM24.5815 17.1048C25.0396 16.609 25.3605 16.0056 25.5134 15.3524C25.6662 14.6993 25.646 14.0184 25.4545 13.3752C25.2631 12.732 24.9068 12.1481 24.4201 11.6796C23.9333 11.2111 23.3324 10.8737 22.675 10.6999C22.4717 10.6466 22.2552 10.675 22.0731 10.7786C21.8909 10.8822 21.7579 11.0528 21.7032 11.2528C21.6485 11.4528 21.6765 11.666 21.7812 11.8458C21.8858 12.0255 22.0585 12.157 22.2615 12.2115C22.7368 12.3379 23.1607 12.6061 23.475 12.9792C23.7893 13.3523 23.9786 13.812 24.017 14.2953C24.0553 14.7786 23.9408 15.2617 23.6892 15.6784C23.4376 16.0951 23.0611 16.4248 22.6116 16.6224C22.5164 16.663 22.4305 16.722 22.3589 16.7958C22.3527 16.8029 22.3449 16.8074 22.3387 16.8142C22.2903 16.8699 22.2503 16.9322 22.2199 16.9992C22.2024 17.0308 22.187 17.0635 22.174 17.0971C22.1685 17.1148 22.1554 17.1284 22.151 17.1469C22.1432 17.179 22.151 17.2096 22.1478 17.2417C22.1384 17.3015 22.1363 17.3623 22.1416 17.4226C22.1462 17.4532 22.153 17.4834 22.1618 17.5131C22.1726 17.5622 22.1726 17.6124 22.1944 17.6599C22.2494 17.7813 22.3351 17.8866 22.4435 17.9658C22.5518 18.0451 22.679 18.0955 22.8128 18.1123C23.8425 18.3647 24.7566 18.9497 25.4088 19.7739C26.0611 20.5982 26.4138 21.6139 26.4107 22.6588V23.8694C26.4142 24.0747 26.4995 24.2703 26.6481 24.4142C26.7968 24.5581 26.9969 24.6388 27.2053 24.6388C27.4138 24.6388 27.6139 24.5581 27.7625 24.4142C27.9112 24.2703 27.9965 24.0747 28 23.8694V22.6591C28 20.2709 26.6512 18.16 24.5829 17.1046L24.5815 17.1048Z" fill="black"/>
</svg>
