<svg width="36" height="36" viewBox="0 0 36 36" fill="none" xmlns="http://www.w3.org/2000/svg">
<path d="M17.0876 8C22.1066 8 26.1751 12.0686 26.1751 17.0876C26.1751 19.2445 25.4235 21.2261 24.1684 22.7844C24.272 22.8043 24.3672 22.855 24.4415 22.9298L27.8435 26.3317C27.9437 26.432 28 26.5679 28 26.7097C28 26.8514 27.9437 26.9874 27.8435 27.0876L27.0876 27.8435C26.9874 27.9437 26.8514 28 26.7097 28C26.5679 28 26.432 27.9437 26.3317 27.8435L22.9298 24.4415C22.8549 24.367 22.8039 24.2719 22.7833 24.1684C21.1707 25.4701 19.16 26.1785 17.0876 26.1751C12.0686 26.1751 8 22.1066 8 17.0876C8 12.0686 12.0686 8 17.0876 8ZM17.0876 10.1382C13.2494 10.1382 10.1382 13.2494 10.1382 17.0876C10.1382 20.9257 13.2494 24.0369 17.0876 24.0369C20.9257 24.0369 24.0369 20.9257 24.0369 17.0876C24.0369 13.2494 20.9257 10.1382 17.0876 10.1382Z" fill="black"/>
</svg>
