<svg width="36" height="36" viewBox="0 0 36 36" fill="none" xmlns="http://www.w3.org/2000/svg">
<path d="M14.1436 22.6636C14.0771 22.6379 14.0106 22.6123 13.9574 22.5866C13.5984 22.4455 13.2128 22.4583 12.867 22.6251L11.5372 23.4847L11.8697 22.1632L11.883 22.1247C11.9628 21.727 11.8298 21.3165 11.5372 21.0214C10.367 19.8795 9.71543 18.4298 9.71543 16.9287C9.71543 13.4775 13.0665 10.6679 17.2021 10.6679C20.1809 10.6679 22.7606 12.1304 23.9574 14.2602C24.7686 14.4911 25.5266 14.8375 26.2048 15.2865C25.3138 11.6942 21.617 9 17.2021 9C12.1223 9 8 12.5666 8 16.9416C8 18.8147 8.75798 20.6108 10.141 22.0349L9.50266 24.5367C9.38298 24.9857 9.56915 25.4348 9.95479 25.7042C10.1543 25.8325 10.3803 25.8966 10.6064 25.8966C10.8324 25.8966 11.0452 25.8325 11.2447 25.7042L13.5186 24.216C14.0771 24.4341 14.6622 24.588 15.2606 24.7035C14.7686 24.0877 14.383 23.3949 14.1436 22.6636Z" fill="black"/>
<path d="M26.0186 27C25.8324 27 25.633 26.9487 25.4601 26.8332L24.0239 25.8966C23.2527 26.1789 22.4282 26.32 21.5771 26.32C18.0399 26.32 15.1676 23.8311 15.1676 20.7648C15.1676 17.6985 18.0399 15.2096 21.5771 15.2096C25.1144 15.2096 28 17.6985 28 20.7648C28 22.0349 27.4947 23.2666 26.5771 24.2545L26.9761 25.8325C27.0691 26.2174 26.9229 26.6151 26.5771 26.8332C26.4176 26.9487 26.2181 27 26.0186 27ZM21.5904 16.7491C18.9309 16.7491 16.7766 18.5453 16.7766 20.7648C16.7766 22.9843 18.9441 24.7805 21.5904 24.7805C22.3218 24.7805 23.0266 24.6522 23.6915 24.3828C23.984 24.2673 24.3165 24.2801 24.609 24.4212L24.6888 24.4726L25.0612 24.7163L24.9548 24.3186C24.8883 23.985 24.9947 23.6386 25.2473 23.3949C25.992 22.6636 26.4043 21.7398 26.4043 20.7904C26.4043 18.5453 24.2367 16.7491 21.5904 16.7491Z" fill="black"/>
</svg>
