<svg width="34" height="34" viewBox="0 0 34 34" fill="none" xmlns="http://www.w3.org/2000/svg">
<g clip-path="url(#clip0_1454_1723)">
<circle cx="17" cy="17" r="17" fill="#FF941F"/>
<path d="M17 8.66675C21.6025 8.66675 25.3334 12.3976 25.3334 17.0001C25.3334 21.6026 21.6025 25.3334 17 25.3334C12.3975 25.3334 8.66669 21.6026 8.66669 17.0001C8.66669 12.3976 12.3975 8.66675 17 8.66675ZM17 10.3334C13.3179 10.3334 10.3334 13.318 10.3334 17.0001C10.3334 20.6822 13.3179 23.6667 17 23.6667C20.6821 23.6667 23.6667 20.6822 23.6667 17.0001C23.6667 13.318 20.6821 10.3334 17 10.3334ZM17 12.4167C17.0547 12.4167 17.1089 12.4275 17.1595 12.4485C17.21 12.4694 17.256 12.5001 17.2946 12.5388C17.3333 12.5775 17.364 12.6234 17.385 12.674C17.4059 12.7245 17.4167 12.7787 17.4167 12.8334V17.4167H20.75C20.8047 17.4167 20.8589 17.4275 20.9095 17.4485C20.96 17.4694 21.006 17.5001 21.0446 17.5388C21.0833 17.5775 21.114 17.6234 21.135 17.674C21.1559 17.7245 21.1667 17.7787 21.1667 17.8334V18.6667C21.1667 18.7215 21.1559 18.7756 21.135 18.8262C21.114 18.8768 21.0833 18.9227 21.0446 18.9614C21.006 19.0001 20.96 19.0308 20.9095 19.0517C20.8589 19.0726 20.8047 19.0834 20.75 19.0834H16.1667C16.112 19.0834 16.0578 19.0726 16.0072 19.0517C15.9567 19.0308 15.9107 19.0001 15.8721 18.9614C15.8334 18.9227 15.8027 18.8768 15.7817 18.8262C15.7608 18.7756 15.75 18.7215 15.75 18.6667V12.8334C15.75 12.7787 15.7608 12.7245 15.7817 12.674C15.8027 12.6234 15.8334 12.5775 15.8721 12.5388C15.9107 12.5001 15.9567 12.4694 16.0072 12.4485C16.0578 12.4275 16.112 12.4167 16.1667 12.4167H17V12.4167Z" fill="white"/>
</g>
<defs>
<clipPath id="clip0_1454_1723">
<rect width="34" height="34" fill="white"/>
</clipPath>
</defs>
</svg>
