<svg width="34" height="34" viewBox="0 0 34 34" fill="none" xmlns="http://www.w3.org/2000/svg">
<g clip-path="url(#clip0_1454_1730)">
<circle cx="17" cy="17" r="17" fill="#308DFF"/>
<g clip-path="url(#clip1_1454_1730)">
<path d="M17 26.1666C11.9375 26.1666 7.83331 22.0624 7.83331 16.9999C7.83331 11.9374 11.9375 7.83325 17 7.83325C22.0625 7.83325 26.1666 11.9374 26.1666 16.9999C26.1666 22.0624 22.0625 26.1666 17 26.1666ZM17 24.9166C19.0996 24.9166 21.1132 24.0825 22.5979 22.5978C24.0826 21.1132 24.9166 19.0995 24.9166 16.9999C24.9166 14.9003 24.0826 12.8867 22.5979 11.402C21.1132 9.91733 19.0996 9.08325 17 9.08325C14.9003 9.08325 12.8867 9.91733 11.4021 11.402C9.91739 12.8867 9.08331 14.9003 9.08331 16.9999C9.08331 19.0995 9.91739 21.1132 11.4021 22.5978C12.8867 24.0825 14.9003 24.9166 17 24.9166V24.9166ZM17.6916 12.0999C17.6916 12.0499 17.795 11.9999 17.795 11.9999H17.8458L22.17 15.9474C22.2208 15.9966 22.2208 16.0474 22.17 16.0966L17.8458 20.1441C17.8458 20.1941 17.795 20.1941 17.795 20.1941C17.7433 20.1941 17.6916 20.1441 17.6916 20.0941V17.3458H17.435C16.765 17.3458 15.0666 17.6458 13.06 20.4933C13.0083 20.5933 12.9566 20.5933 12.905 20.5933H12.8533C12.8533 20.5933 12.7616 18.9908 12.9683 18.2416C13.9983 14.3941 17.435 14.3699 17.6916 14.3699V12.0999Z" fill="white"/>
</g>
</g>
<defs>
<clipPath id="clip0_1454_1730">
<rect width="34" height="34" fill="white"/>
</clipPath>
<clipPath id="clip1_1454_1730">
<rect width="20" height="20" fill="white" transform="translate(7 7)"/>
</clipPath>
</defs>
</svg>
