<svg width="20" height="20" viewBox="0 0 20 20" fill="none" xmlns="http://www.w3.org/2000/svg">
<circle cx="10" cy="10" r="7" fill="white"/>
<path d="M12.1358 7.375C11.0619 7.375 10.2386 8.31737 10.2386 9.52907V12.4229C10.2392 12.4754 10.2581 12.5256 10.2914 12.5633C10.3247 12.6009 10.3699 12.623 10.4176 12.625H12.446C12.5415 12.625 12.625 12.5305 12.625 12.4229V10.1344C12.6243 10.082 12.6054 10.0319 12.5721 9.99435C12.5388 9.95684 12.4936 9.93481 12.446 9.9328H10.9545V9.52855C10.9545 8.85602 11.5392 8.18245 12.1358 8.18245H12.446C12.5415 8.18245 12.625 8.08847 12.625 7.98085V7.5766C12.6243 7.52418 12.6054 7.47405 12.5721 7.43655C12.5388 7.39904 12.4936 7.37701 12.446 7.375H12.1358ZM9.27216 7.375C8.1983 7.375 7.375 8.31737 7.375 9.52907V12.4229C7.37558 12.4754 7.39447 12.5256 7.42778 12.5633C7.46109 12.6009 7.50627 12.623 7.55398 12.625H9.58239C9.67784 12.625 9.76136 12.5305 9.76136 12.4229V10.1344C9.76067 10.082 9.74171 10.0319 9.70842 9.99435C9.67512 9.95684 9.63001 9.93481 9.58239 9.9328H8.09091V9.52855C8.09091 8.85602 8.67557 8.18245 9.27216 8.18245H9.58239C9.67784 8.18245 9.76136 8.08847 9.76136 7.98085V7.5766C9.76067 7.52418 9.74171 7.47405 9.70842 7.43655C9.67512 7.39904 9.63001 7.37701 9.58239 7.375H9.27216Z" fill="#4C4C4C"/>
</svg>
