<svg width="20" height="20" viewBox="0 0 20 20" fill="none" xmlns="http://www.w3.org/2000/svg">
<path d="M13.1022 6.89133H14.6618C14.8453 6.89133 14.9977 6.73643 14.9977 6.5499C14.9977 6.45829 14.9665 6.395 14.9076 6.30007L12.7057 4.0916C12.6435 4.02831 12.5845 4 12.4911 4C12.3076 4 12.1553 4.15489 12.1553 4.34143V5.92699C12.1553 6.45496 12.5812 6.89133 13.1022 6.89133Z" fill="white"/>
<path d="M14.5102 8.32033H12.1248C11.3286 8.32033 10.6881 7.66745 10.6881 6.89133V4.46468C10.7192 4.21485 10.5046 4 10.231 4H6.43676C5.64056 4 5 4.65121 5 5.42901V14.571C5 15.3804 5.64056 16 6.43676 16H13.5632C14.3594 16 15 15.3471 15 14.571V8.81666C14.9984 8.53852 14.7854 8.32033 14.5102 8.32033Z" fill="white"/>
</svg>
