<svg width="36" height="30" viewBox="0 0 36 30" fill="none" xmlns="http://www.w3.org/2000/svg">
<path d="M19.2181 15.0165L23.4373 10.7973C23.7695 10.4651 23.7695 9.92505 23.4373 9.59146C23.1051 9.25923 22.565 9.25923 22.2314 9.59146L18.0136 13.812L13.7945 9.59419C13.4623 9.26196 12.9222 9.26196 12.5886 9.59419C12.2564 9.92642 12.2564 10.4665 12.5886 10.8L16.8078 15.0178L12.5886 19.2356C12.2564 19.5678 12.2564 20.1079 12.5886 20.4415C12.9209 20.7737 13.4609 20.7737 13.7945 20.4415L18.0136 16.2223L22.2328 20.4415C22.565 20.7737 23.1051 20.7737 23.4386 20.4415C23.7709 20.1092 23.7709 19.5692 23.4386 19.2356L19.2181 15.0165Z" fill="black"/>
</svg>
