<svg width="34" height="34" viewBox="0 0 34 34" fill="none" xmlns="http://www.w3.org/2000/svg">
<path d="M34 17C34 26.3888 26.3888 34 17 34C7.61116 34 0 26.3888 0 17C0 7.61116 7.61116 0 17 0C26.3888 0 34 7.61116 34 17ZM2.38 17C2.38 25.0744 8.9256 31.62 17 31.62C25.0744 31.62 31.62 25.0744 31.62 17C31.62 8.9256 25.0744 2.38 17 2.38C8.9256 2.38 2.38 8.9256 2.38 17Z" fill="black" fill-opacity="0.4"/>
<path d="M17.0001 0.000489024C19.7445 0.000488904 22.448 0.664888 24.8798 1.93692C27.3115 3.20894 29.3992 5.05078 30.9643 7.30505C32.5295 9.55932 33.5256 12.159 33.8676 14.8819C34.2096 17.6049 33.8873 20.3702 32.9282 22.9415C31.9692 25.5128 30.4018 27.8137 28.3602 29.6476C26.3186 31.4815 23.8633 32.7938 21.2042 33.4725C18.5451 34.1511 15.7612 34.176 13.0904 33.5448C10.4196 32.9136 7.94133 31.6453 5.86732 29.8481L7.42591 28.0494C9.20956 29.595 11.3409 30.6858 13.6378 31.2286C15.9346 31.7714 18.3288 31.75 20.6156 31.1664C22.9024 30.5827 25.014 29.4541 26.7698 27.877C28.5256 26.2998 29.8735 24.3211 30.6983 22.1097C31.5231 19.8984 31.8003 17.5203 31.5062 15.1785C31.212 12.8368 30.3554 10.6011 29.0093 8.66241C27.6633 6.72374 25.8679 5.13976 23.7766 4.04582C21.6853 2.95187 19.3603 2.38049 17.0001 2.38049L17.0001 0.000489024Z" fill="white"/>
<path d="M18.1251 17L23.0001 21.875L21.8751 23L17.0001 18.125L12.1251 23L11.0001 21.875L15.8751 17L11.0001 12.125L12.1251 11L17.0001 15.875L21.8751 11L23.0001 12.125L18.1251 17Z" fill="white"/>
</svg>
