<svg width="17" height="17" viewBox="0 0 17 17" fill="none" xmlns="http://www.w3.org/2000/svg">
<path d="M8.5 1.0625C4.39927 1.0625 1.0625 4.39876 1.0625 8.5C1.0625 12.6012 4.39876 15.9375 8.5 15.9375C12.6007 15.9375 15.9375 12.6012 15.9375 8.5C15.9375 4.39876 12.6012 1.0625 8.5 1.0625ZM11.534 10.7908C11.7412 10.999 11.7406 11.3348 11.5329 11.5419C11.4293 11.645 11.2939 11.6971 11.1579 11.6971C11.0213 11.6971 10.8853 11.645 10.7817 11.5409L8.49734 9.24959L6.20554 11.517C6.10196 11.619 5.96699 11.6705 5.83206 11.6705C5.69501 11.6705 5.55847 11.6179 5.45435 11.5127C5.24822 11.3039 5.24982 10.9682 5.4586 10.7615L7.74775 8.49734L5.46708 6.20925C5.2599 6.00152 5.26044 5.66525 5.46814 5.45806C5.67587 5.25033 6.0116 5.25141 6.21933 5.45912L8.50317 7.74987L10.795 5.48251C11.0032 5.27586 11.34 5.27797 11.5462 5.48676C11.7528 5.69555 11.7507 6.03182 11.5419 6.23795L9.25279 8.50211L11.534 10.7908Z" fill="#D5D5D5"/>
</svg>
