<svg width="20" height="20" viewBox="0 0 20 20" fill="none" xmlns="http://www.w3.org/2000/svg">
<g clip-path="url(#clip0_1431_23754)">
<path d="M10.8701 10.0117L13.8838 6.99805C14.1211 6.76074 14.1211 6.375 13.8838 6.13672C13.6465 5.89941 13.2607 5.89941 13.0225 6.13672L10.0098 9.15137L6.99609 6.13867C6.75879 5.90137 6.37305 5.90137 6.13477 6.13867C5.89746 6.37598 5.89746 6.76172 6.13477 7L9.14844 10.0127L6.13477 13.0254C5.89746 13.2627 5.89746 13.6484 6.13477 13.8867C6.37207 14.124 6.75781 14.124 6.99609 13.8867L10.0098 10.873L13.0234 13.8867C13.2607 14.124 13.6465 14.124 13.8848 13.8867C14.1221 13.6494 14.1221 13.2637 13.8848 13.0254L10.8701 10.0117Z" fill="white"/>
</g>
<defs>
<clipPath id="clip0_1431_23754">
<rect width="10" height="10" fill="white" transform="translate(5 5)"/>
</clipPath>
</defs>
</svg>
