<svg width="16" height="16" viewBox="0 0 16 16" fill="none" xmlns="http://www.w3.org/2000/svg">
<g clip-path="url(#clip0_1136_2125)">
<path d="M1.44512 4.16318H2.02656L3.24953 15.4206C3.28488 15.7496 3.56058 16 3.88753 16H12.1143C12.4413 16 12.717 15.7496 12.7523 15.4206L13.9753 4.16318H14.5568C14.912 4.16318 15.2 3.87169 15.2 3.51224C15.2 3.15279 14.912 2.86129 14.5568 2.86129H11.342V0.650944C11.342 0.291494 11.054 1.57176e-10 10.6987 0H5.30137C4.94615 0 4.65808 0.291494 4.65808 0.650944V2.86308H1.44335C1.08812 2.86308 0.800049 3.15458 0.800049 3.51403C0.801816 3.87169 1.08989 4.16318 1.44512 4.16318ZM5.94291 1.30189H10.0554V2.86308H5.94291V1.30189ZM5.30137 4.16318H12.6834L11.54 14.6981H4.46367L3.32023 4.16318H5.30137ZM5.43215 12.9277L4.91787 6.29485C4.88959 5.93719 5.15469 5.62423 5.50815 5.59562C5.86338 5.56701 6.17089 5.83525 6.19916 6.19291L6.71345 12.8258C6.74173 13.1834 6.47663 13.4964 6.12317 13.525C6.1055 13.5268 6.08959 13.5268 6.07192 13.5268C5.73967 13.5286 5.4569 13.2693 5.43215 12.9277ZM7.48576 12.8776V6.24477C7.48576 5.88532 7.77383 5.59383 8.12906 5.59383C8.48429 5.59383 8.77236 5.88532 8.77236 6.24477V12.8776C8.77236 13.2371 8.48429 13.5286 8.12906 13.5286C7.77383 13.5286 7.48576 13.2371 7.48576 12.8776ZM9.54467 12.8275L10.059 6.19291C10.0872 5.83525 10.3965 5.56701 10.75 5.59562C11.1034 5.62423 11.3685 5.93719 11.3403 6.29485L10.826 12.9277C10.7995 13.2693 10.5185 13.5268 10.1862 13.5268C10.1685 13.5268 10.1526 13.5268 10.135 13.525C9.78149 13.4982 9.5164 13.1852 9.54467 12.8275Z" fill="white"/>
</g>
<defs>
<clipPath id="clip0_1136_2125">
<rect width="16" height="16" fill="white"/>
</clipPath>
</defs>
</svg>
