<svg width="24" height="24" viewBox="0 0 24 24" fill="none" xmlns="http://www.w3.org/2000/svg">
<g clip-path="url(#clip0_1134_2081)">
<path d="M12 0C5.37188 0 0 5.37188 0 12C0 18.6281 5.37188 24 12 24C18.6281 24 24 18.6281 24 12C24 5.37188 18.6281 0 12 0ZM12 22.5C6.21094 22.5 1.5 17.7891 1.5 12C1.5 6.21094 6.21094 1.5 12 1.5C17.7891 1.5 22.5 6.21094 22.5 12C22.5 17.7891 17.7891 22.5 12 22.5Z" fill="#333333"/>
<path d="M7 7.63645C7 8.07046 7.1756 8.4867 7.48816 8.7936C7.80072 9.10049 8.22464 9.2729 8.66667 9.2729C9.10869 9.2729 9.53262 9.10049 9.84518 8.7936C10.1577 8.4867 10.3333 8.07046 10.3333 7.63645C10.3333 7.20244 10.1577 6.7862 9.84518 6.47931C9.53262 6.17241 9.10869 6 8.66667 6C8.22464 6 7.80072 6.17241 7.48816 6.47931C7.1756 6.7862 7 7.20244 7 7.63645Z" fill="#333333"/>
<path d="M13.668 7.63645C13.668 8.07046 13.8436 8.4867 14.1561 8.7936C14.4687 9.10049 14.8926 9.2729 15.3346 9.2729C15.7767 9.2729 16.2006 9.10049 16.5131 8.7936C16.8257 8.4867 17.0013 8.07046 17.0013 7.63645C17.0013 7.20244 16.8257 6.7862 16.5131 6.47931C16.2006 6.17241 15.7767 6 15.3346 6C14.8926 6 14.4687 6.17241 14.1561 6.47931C13.8436 6.7862 13.668 7.20244 13.668 7.63645Z" fill="#333333"/>
<path d="M12 17.9998C14.7614 17.9998 17 15.5575 17 12.5449H7C7 15.5575 9.23863 17.9998 12 17.9998Z" fill="#333333"/>
</g>
<defs>
<clipPath id="clip0_1134_2081">
<rect width="24" height="24" fill="white"/>
</clipPath>
</defs>
</svg>
