<svg width="16" height="16" viewBox="0 0 16 16" fill="none" xmlns="http://www.w3.org/2000/svg">
<path d="M8.00172 1C6.61718 0.99966 5.26363 1.40991 4.11226 2.17888C2.96089 2.94784 2.06342 4.04097 1.53334 5.32002C1.00326 6.59908 0.864394 8.0066 1.1343 9.36458C1.4042 10.7226 2.07075 11.97 3.04965 12.9491C4.02855 13.9283 5.27582 14.5951 6.63374 14.8654C7.99165 15.1356 9.39921 14.9971 10.6784 14.4673C11.9576 13.9376 13.0509 13.0403 13.8202 11.8892C14.5894 10.738 15 9.38454 15 8C14.998 6.14441 14.26 4.36538 12.9481 3.05312C11.6362 1.74086 9.85731 1.0025 8.00172 1ZM8.00172 13.8878C6.83723 13.8878 5.69889 13.5425 4.73065 12.8955C3.76241 12.2485 3.00776 11.329 2.56213 10.2531C2.1165 9.1773 1.9999 7.99347 2.22708 6.85135C2.45426 5.70924 3.01502 4.66014 3.83844 3.83672C4.66186 3.0133 5.71096 2.45254 6.85307 2.22536C7.99519 1.99818 9.17902 2.11478 10.2549 2.56041C11.3307 3.00604 12.2503 3.76069 12.8972 4.72893C13.5442 5.69717 13.8895 6.83551 13.8895 8C13.8893 9.56138 13.2688 11.0587 12.1647 12.1627C11.0606 13.2667 9.56311 13.8869 8.00172 13.8869V13.8878Z" fill="black"/>
<rect x="7.14343" y="4.28613" width="1.14286" height="4.71429" rx="0.571429" fill="black"/>
<rect x="12.7858" y="9.71484" width="1.14286" height="5.71429" rx="0.571429" transform="rotate(110.385 12.7858 9.71484)" fill="black"/>
</svg>
