<svg width="16" height="16" viewBox="0 0 16 16" fill="none" xmlns="http://www.w3.org/2000/svg">
<g clip-path="url(#clip0_1136_2112)">
<path d="M1.39999 15.1998C1.06799 15.1998 0.799988 14.9241 0.799988 14.5827V2.65123C0.799988 1.63089 1.60799 0.799805 2.59999 0.799805H13.4C14.392 0.799805 15.2 1.63089 15.2 2.65123V11.0855C15.2 12.1059 14.392 12.9369 13.4 12.9369H4.81999C4.48799 12.9369 4.21999 12.6613 4.21999 12.3198C4.21999 11.9783 4.48799 11.7027 4.81999 11.7027H13.4C13.73 11.7027 14 11.4249 14 11.0855V2.65123C14 2.3118 13.73 2.03409 13.4 2.03409H2.59999C2.26999 2.03409 1.99999 2.3118 1.99999 2.65123V14.5827C1.99999 14.9221 1.72999 15.1998 1.39999 15.1998ZM11.202 6.3438H4.63599C4.30399 6.3438 4.03599 6.06815 4.03599 5.72666C4.03599 5.38518 4.30399 5.10952 4.63599 5.10952H11.202C11.534 5.10952 11.802 5.38518 11.802 5.72666C11.802 6.06815 11.534 6.3438 11.202 6.3438ZM7.57599 9.2238H4.60999C4.27799 9.2238 4.00999 8.94815 4.00999 8.60666C4.00999 8.26518 4.27799 7.98952 4.60999 7.98952H7.57599C7.90799 7.98952 8.17599 8.26518 8.17599 8.60666C8.17599 8.94815 7.90799 9.2238 7.57599 9.2238ZM1.57999 15.0969C1.38399 15.0969 1.19399 14.9982 1.07799 14.8192C0.895988 14.5333 0.973988 14.1507 1.24999 13.9655L4.44999 11.8055C4.72799 11.6183 5.09999 11.6985 5.27999 11.9824C5.46199 12.2684 5.38399 12.651 5.10799 12.8361L1.90799 14.9961C1.80799 15.064 1.69199 15.0969 1.57999 15.0969Z" fill="white"/>
</g>
<defs>
<clipPath id="clip0_1136_2112">
<rect width="16" height="16" fill="white"/>
</clipPath>
</defs>
</svg>
