<svg width="82" height="80" viewBox="0 0 82 80" fill="none" xmlns="http://www.w3.org/2000/svg">
<g filter="url(#filter0_d_1134_2100)">
<circle cx="41" cy="39" r="31" fill="#1E6FFF"/>
</g>
<path d="M40.9997 28C33.82 28 28 32.6692 28 38.4293C28 42.5015 30.9114 46.0265 35.1534 47.7433L33.8548 49.0719C33.4642 49.471 33.8553 50.1171 34.4053 49.9817L39.3381 48.7706C39.883 48.8266 40.4369 48.8581 41.0003 48.8581C48.18 48.8581 54 44.1889 54 38.4288C53.9994 32.6692 48.1794 28 40.9997 28ZM33.2577 38.4288C33.2577 37.4972 34.0372 36.7419 34.9985 36.7419C35.9598 36.7419 36.7392 37.4972 36.7392 38.4288C36.7392 39.3604 35.9598 40.1157 34.9985 40.1157C34.0372 40.1157 33.2577 39.3604 33.2577 38.4288ZM40.9997 40.6949C39.7084 40.6949 38.6618 39.6807 38.6618 38.4293C38.6618 37.178 39.7084 36.1638 40.9997 36.1638C42.291 36.1638 43.3376 37.178 43.3376 38.4293C43.3376 39.6801 42.291 40.6949 40.9997 40.6949ZM47.001 40.1157C46.0397 40.1157 45.2602 39.3604 45.2602 38.4288C45.2602 37.4972 46.0397 36.7419 47.001 36.7419C47.9623 36.7419 48.7418 37.4972 48.7418 38.4288C48.7418 39.3604 47.9623 40.1157 47.001 40.1157Z" fill="white"/>
<defs>
<filter id="filter0_d_1134_2100" x="0" y="-2" width="82" height="82" filterUnits="userSpaceOnUse" color-interpolation-filters="sRGB">
<feFlood flood-opacity="0" result="BackgroundImageFix"/>
<feColorMatrix in="SourceAlpha" type="matrix" values="0 0 0 0 0 0 0 0 0 0 0 0 0 0 0 0 0 0 127 0" result="hardAlpha"/>
<feOffset/>
<feGaussianBlur stdDeviation="5"/>
<feComposite in2="hardAlpha" operator="out"/>
<feColorMatrix type="matrix" values="0 0 0 0 0 0 0 0 0 0 0 0 0 0 0 0 0 0 0.2 0"/>
<feBlend mode="normal" in2="BackgroundImageFix" result="effect1_dropShadow_1134_2100"/>
<feBlend mode="normal" in="SourceGraphic" in2="effect1_dropShadow_1134_2100" result="shape"/>
</filter>
</defs>
</svg>
