<svg width="64" height="56" viewBox="0 0 64 56" fill="none" xmlns="http://www.w3.org/2000/svg">
<g filter="url(#filter0_d_1135_2108)">
<rect x="10" y="10" width="44" height="36" rx="8" fill="white" shape-rendering="crispEdges"/>
<path d="M39.4988 35H28.2379V34.9861C28.0777 34.9844 27.9192 34.9238 27.7961 34.8001L22.1797 28.4746C22.0485 28.3419 21.9914 28.1641 22.001 27.9904C21.9914 27.8151 22.0485 27.6397 22.1797 27.5062L27.7961 21.1807C27.9305 21.0455 28.1091 20.9906 28.2838 21.0013H39.4988C40.8798 21.0013 42 22.141 42 23.5454V32.4534C42 33.8603 40.8798 35 39.4988 35ZM40.7494 23.5454C40.7494 22.8432 40.1885 22.2746 39.4988 22.2746H28.5252L23.4496 27.9912L28.5429 33.7275H39.498C40.1877 33.7275 40.7486 33.1564 40.7486 32.4543V23.5454H40.7494ZM34.7564 28.0043L36.1559 29.4267C36.273 29.5461 36.3387 29.7079 36.3387 29.8766C36.3387 30.0453 36.273 30.207 36.1559 30.3264C35.912 30.5747 35.5153 30.5747 35.2723 30.3264L33.8728 28.904L32.454 30.3444C32.2086 30.5943 31.8102 30.5943 31.5639 30.3444C31.3161 30.0945 31.3161 29.6889 31.5639 29.4382L32.9811 27.9953L31.5816 26.5729C31.5233 26.514 31.477 26.4439 31.4454 26.3667C31.4138 26.2895 31.3976 26.2067 31.3976 26.1231C31.3976 26.0395 31.4138 25.9566 31.4454 25.8794C31.477 25.8022 31.5233 25.7322 31.5816 25.6733C31.6989 25.554 31.8578 25.4871 32.0235 25.4871C32.1891 25.4871 32.3481 25.554 32.4653 25.6733L33.8647 27.0957L35.3012 25.6348C35.5491 25.3848 35.9474 25.3848 36.1929 25.6348C36.4383 25.8847 36.4383 26.2902 36.1929 26.541L34.7564 28.0043Z" fill="#231815"/>
</g>
<defs>
<filter id="filter0_d_1135_2108" x="0" y="0" width="64" height="56" filterUnits="userSpaceOnUse" color-interpolation-filters="sRGB">
<feFlood flood-opacity="0" result="BackgroundImageFix"/>
<feColorMatrix in="SourceAlpha" type="matrix" values="0 0 0 0 0 0 0 0 0 0 0 0 0 0 0 0 0 0 127 0" result="hardAlpha"/>
<feOffset/>
<feGaussianBlur stdDeviation="5"/>
<feComposite in2="hardAlpha" operator="out"/>
<feColorMatrix type="matrix" values="0 0 0 0 1 0 0 0 0 1 0 0 0 0 1 0 0 0 1 0"/>
<feBlend mode="normal" in2="BackgroundImageFix" result="effect1_dropShadow_1135_2108"/>
<feBlend mode="normal" in="SourceGraphic" in2="effect1_dropShadow_1135_2108" result="shape"/>
</filter>
</defs>
</svg>
