<svg width="16" height="16" viewBox="0 0 16 16" fill="none" xmlns="http://www.w3.org/2000/svg">
<path d="M8 1C4.15 1 1 4.15 1 8C1 11.85 4.15 15 8 15C11.85 15 15 11.85 15 8C15 4.15 11.85 1 8 1Z" fill="#FF5050"/>
<path d="M8.00001 11.75C7.60001 11.75 7.25001 11.4 7.25001 11C7.25001 10.6 7.60001 10.25 8.00001 10.25C8.40001 10.25 8.75001 10.6 8.75001 11C8.75001 11.4 8.40001 11.75 8.00001 11.75ZM8.65001 8.85C8.65001 9.35 8.45001 9.75 8.00001 9.75C7.55001 9.75 7.35001 9.35 7.35001 8.85L7.10001 5.15C7.10001 4.65 7.50001 4.25 7.95001 4.25C8.40001 4.25 8.85001 4.65 8.85001 5.15L8.65001 8.85Z" fill="white"/>
</svg>
