<svg width="24" height="24" viewBox="0 0 24 24" fill="none" xmlns="http://www.w3.org/2000/svg">
<path d="M5.25076 5.26098C2.92615 6.48301 3.55442 10.136 6.1429 10.4119C6.73348 10.4776 6.94709 10.4382 7.53767 10.1228C8.40468 9.68921 8.8696 9.01906 8.95756 8.08611C9.04552 7.12688 8.9073 6.61441 8.39212 5.98369C7.5251 4.93247 6.39421 4.66967 5.25076 5.26098ZM6.95966 7.00862C7.34919 7.32398 7.34919 8.04669 6.97222 8.37519C6.38165 8.87452 5.59002 8.5066 5.56489 7.70505C5.53976 6.91664 6.36908 6.49615 6.95966 7.00862Z" fill="#333333"/>
<path d="M19.3509 10.2806C18.8231 10.3594 17.8053 10.7011 17.2148 11.0164C16.2221 11.5289 15.6818 12.1202 15.0661 13.3817C14.2368 15.0505 14.0985 15.1819 13.043 15.1819C12.5781 15.1819 11.598 15.0242 10.8692 14.8534C10.1404 14.6694 9.14775 14.4854 8.67027 14.446C6.5844 14.2489 4.92576 15.1424 3.50587 17.2317C3.02838 17.9282 2.94042 18.1515 2.97812 18.5589C3.05351 19.5444 4.07131 19.6627 4.59906 18.7691C5.05142 18.007 6.09435 16.8901 6.6598 16.601C7.48911 16.1542 8.44409 16.1542 10.4043 16.6141C11.5854 16.8901 12.465 17.0215 13.1687 17.0215C14.9153 17.0083 15.4682 16.5879 16.5362 14.3672C17.2148 12.9612 18.0943 12.3436 19.7279 12.0939C20.7708 11.9362 21.0472 11.7129 21.0472 11.0164C21.0472 10.3069 20.5823 10.1098 19.3509 10.2806Z" fill="#333333"/>
<rect x="0.85" y="1.85" width="22.3" height="20.3" rx="4.15" stroke="#333333" stroke-width="1.7"/>
</svg>
