<svg width="16" height="16" viewBox="0 0 16 16" fill="none" xmlns="http://www.w3.org/2000/svg">
<g clip-path="url(#clip0_1136_2117)">
<path d="M6.72901 2.69144L6.69972 2.66215H6.6583H1.83249C1.31826 2.66215 0.9 3.08043 0.9 3.59471V14.1678C0.9 14.6821 1.31827 15.1 1.83249 15.1H9.3215C9.83574 15.1 10.254 14.6817 10.254 14.1674V6.25796V6.21654L10.2248 6.18725L6.72901 2.69144ZM5.74596 7.07034V7.17034H5.84596H9.27025V14.1168H1.88374L1.88376 3.64596H5.74596V7.07034ZM11.0325 13.2382V13.3382H11.1325H14.1675C14.6817 13.3382 15.1 12.9201 15.1 12.4058V4.49584V4.45442L15.0707 4.42513L11.5745 0.929286L11.5452 0.9H11.5038H6.67806C6.18222 0.9 5.77588 1.289 5.74756 1.77803L5.74143 1.88381H5.84739H10.5919V5.30819V5.40819H10.6919H14.1163V12.3545H11.1325H11.0325V12.4545V13.2382ZM6.72928 4.08303L8.8328 6.18657H6.72928V4.08303ZM11.5753 2.32078L13.6783 4.42441H11.5753V2.32078Z" fill="white" stroke="white" stroke-width="0.2"/>
</g>
<defs>
<clipPath id="clip0_1136_2117">
<rect width="16" height="16" fill="white"/>
</clipPath>
</defs>
</svg>
