<svg width="22" height="22" viewBox="0 0 22 22" fill="none" xmlns="http://www.w3.org/2000/svg">
<path d="M11 5C7.69185 5 5 7.69144 5 11C5 14.3086 7.69144 17 11 17C14.3081 17 17 14.3086 17 11C17 7.69144 14.3086 5 11 5ZM13.4476 12.848C13.6147 13.016 13.6143 13.2869 13.4467 13.454C13.3632 13.5371 13.2539 13.5791 13.1442 13.5791C13.034 13.5791 12.9243 13.5371 12.8407 13.4531L10.9979 11.6047L9.149 13.4339C9.06544 13.5162 8.95657 13.5577 8.84771 13.5577C8.73715 13.5577 8.627 13.5153 8.543 13.4304C8.37671 13.262 8.378 12.9911 8.54644 12.8244L10.3931 10.9979L8.55328 9.152C8.38613 8.98442 8.38657 8.71314 8.55413 8.546C8.72171 8.37842 8.99255 8.37929 9.16013 8.54685L11.0026 10.3949L12.8514 8.56572C13.0194 8.39901 13.2911 8.40072 13.4574 8.56915C13.6241 8.73759 13.6224 9.00886 13.454 9.17515L11.6073 11.0017L13.4476 12.848Z" fill="#A6A6A6"/>
</svg>
