<svg width="24" height="24" viewBox="0 0 24 24" fill="none" xmlns="http://www.w3.org/2000/svg">
<g clip-path="url(#clip0_1135_2105)">
<path d="M12 0C5.37188 0 0 5.37188 0 12C0 18.6281 5.37188 24 12 24C18.6281 24 24 18.6281 24 12C24 5.37188 18.6281 0 12 0ZM12 22.5C6.21094 22.5 1.5 17.7891 1.5 12C1.5 6.21094 6.21094 1.5 12 1.5C17.7891 1.5 22.5 6.21094 22.5 12C22.5 17.7891 17.7891 22.5 12 22.5Z" fill="#2E2000"/>
<path d="M5 6H7.69231V8.85714H5V6Z" fill="#2E2000"/>
<path d="M8.76923 6H11.4615V8.85714H8.76923V6Z" fill="#2E2000"/>
<path d="M12.5385 6H15.2308V8.85714H12.5385V6Z" fill="#2E2000"/>
<path d="M16.3077 6H19V8.85714H16.3077V6Z" fill="#2E2000"/>
<path d="M5 10.5714H7.69231V13.4286H5V10.5714Z" fill="#2E2000"/>
<path d="M8.76923 10.5714H11.4615V13.4286H8.76923V10.5714Z" fill="#2E2000"/>
<path d="M7.69231 15.7143H15.2308V18H7.69231V15.7143Z" fill="#2E2000"/>
<path d="M12.5385 10.5714H15.2308V13.4286H12.5385V10.5714Z" fill="#2E2000"/>
<path d="M16.3077 10.5714H19V13.4286H16.3077V10.5714Z" fill="#2E2000"/>
</g>
<defs>
<clipPath id="clip0_1135_2105">
<rect width="24" height="24" fill="white"/>
</clipPath>
</defs>
</svg>
