<svg width="38" height="38" viewBox="0 0 38 38" fill="none" xmlns="http://www.w3.org/2000/svg">
<path d="M19 30C17.5163 30 16.0756 29.7102 14.718 29.1361C13.4088 28.5807 12.231 27.7893 11.2222 26.7778C10.2134 25.769 9.41927 24.5912 8.8639 23.282C8.28976 21.9244 8 20.4837 8 19C8 17.5163 8.28976 16.0756 8.8639 14.718C9.41927 13.4088 10.2107 12.231 11.2222 11.2222C12.231 10.2134 13.4088 9.41927 14.718 8.8639C16.0756 8.28976 17.5163 8 19 8C20.4837 8 21.9244 8.28976 23.282 8.8639C24.5912 9.41927 25.769 10.2107 26.7778 11.2222C27.7866 12.231 28.5807 13.4088 29.1361 14.718C29.7102 16.0756 30 17.5163 30 19C30 20.4837 29.7102 21.9244 29.1361 23.282C28.5807 24.5912 27.7893 25.769 26.7778 26.7778C25.769 27.7866 24.5912 28.5807 23.282 29.1361C21.9244 29.7102 20.4837 30 19 30ZM19 9.87805C13.9695 9.87805 9.87805 13.9695 9.87805 19C9.87805 24.0305 13.9695 28.122 19 28.122C24.0305 28.122 28.122 24.0305 28.122 19C28.122 13.9695 24.0305 9.87805 19 9.87805Z" fill="black" fill-opacity="0.4"/>
<path d="M14.2857 15.8571C14.2857 16.0635 14.3128 16.2678 14.3655 16.4585C14.4181 16.6492 14.4953 16.8224 14.5926 16.9683C14.6898 17.1142 14.8053 17.23 14.9324 17.309C15.0595 17.3879 15.1958 17.4286 15.3333 17.4286C15.4709 17.4286 15.6071 17.3879 15.7342 17.309C15.8613 17.23 15.9768 17.1142 16.0741 16.9683C16.1714 16.8224 16.2486 16.6492 16.3012 16.4585C16.3539 16.2678 16.381 16.0635 16.381 15.8571C16.381 15.6508 16.3539 15.4464 16.3012 15.2558C16.2486 15.0651 16.1714 14.8919 16.0741 14.746C15.9768 14.6001 15.8613 14.4843 15.7342 14.4053C15.6071 14.3264 15.4709 14.2857 15.3333 14.2857C15.1958 14.2857 15.0595 14.3264 14.9324 14.4053C14.8053 14.4843 14.6898 14.6001 14.5926 14.746C14.4953 14.8919 14.4181 15.0651 14.3655 15.2558C14.3128 15.4464 14.2857 15.6508 14.2857 15.8571Z" fill="black" fill-opacity="0.4"/>
<path d="M21.619 15.8571C21.619 16.2739 21.7294 16.6736 21.9259 16.9683C22.1224 17.263 22.3888 17.4286 22.6667 17.4286C22.9445 17.4286 23.211 17.263 23.4074 16.9683C23.6039 16.6736 23.7143 16.2739 23.7143 15.8571C23.7143 15.4404 23.6039 15.0407 23.4074 14.746C23.211 14.4513 22.9445 14.2857 22.6667 14.2857C22.3888 14.2857 22.1224 14.4513 21.9259 14.746C21.7294 15.0407 21.619 15.4404 21.619 15.8571Z" fill="black" fill-opacity="0.4"/>
<path d="M19 24.7619C17.7446 24.7619 16.5569 24.2662 15.6557 23.3636C14.7858 22.493 14.2857 21.3192 14.2857 20.1403C14.2857 19.8 14.5774 19.5238 14.9369 19.5238H23.0631C23.4226 19.5238 23.7143 19.8 23.7143 20.1403C23.7143 21.3192 23.2142 22.493 22.3443 23.3636C21.4431 24.2662 20.2554 24.7619 19 24.7619ZM15.6479 20.7569C15.95 22.3106 17.3617 23.5288 19 23.5288C20.6383 23.5288 22.05 22.3106 22.3521 20.7569H15.6479Z" fill="black" fill-opacity="0.4"/>
</svg>
