<svg width="38" height="38" viewBox="0 0 38 38" fill="none" xmlns="http://www.w3.org/2000/svg">
<path d="M28.6081 16.8467L21.2734 9.51201C20.4092 8.64782 19.2453 8.14978 18.0235 8.12136L12.8628 8.00134C12.8252 8.00045 12.7876 8 12.75 8C10.0913 8.0003 7.93914 10.1901 8.00131 12.8629L8.12134 18.0235C8.14975 19.2453 8.64779 20.4092 9.51199 21.2734L16.8467 28.6081C17.7746 29.536 18.9908 30 20.2071 30C21.4233 30 22.6395 29.536 23.5675 28.6081L28.6081 23.5675C30.464 21.7116 30.464 18.7026 28.6081 16.8467ZM27.2079 22.1673L22.1673 27.2079C21.6437 27.7315 20.9475 28.0199 20.207 28.0199C19.4666 28.0199 18.7704 27.7315 18.2468 27.2079L10.9122 19.8732C10.4057 19.3667 10.1176 18.6935 10.101 17.9774L9.98093 12.8168C9.96343 12.0645 10.2434 11.3539 10.7691 10.8157C11.2954 10.277 11.9988 9.98026 12.75 9.98014L12.8168 9.98093L17.9774 10.1009C18.6935 10.1176 19.3668 10.4057 19.8732 10.9121L27.2079 18.2468C27.7315 18.7704 28.0199 19.4665 28.0199 20.207C28.0198 20.9476 27.7315 21.6437 27.2079 22.1673Z" fill="#999999"/>
<path d="M15.7265 12.5583C14.9157 12.5583 14.1048 12.8676 13.4862 13.4863C12.249 14.7235 12.249 16.7295 13.4862 17.9668C14.1049 18.5855 14.9156 18.8948 15.7265 18.8948C16.5372 18.8948 17.3482 18.5854 17.9668 17.9668C19.204 16.7296 19.204 14.7236 17.9668 13.4863C17.3482 12.8676 16.5373 12.5583 15.7265 12.5583ZM16.5666 16.5666C16.3422 16.791 16.0439 16.9146 15.7265 16.9146C15.4092 16.9146 15.1108 16.7911 14.8864 16.5666C14.662 16.3422 14.5384 16.0439 14.5384 15.7266C14.5384 15.4092 14.662 15.1109 14.8865 14.8865C15.1108 14.6621 15.4092 14.5385 15.7265 14.5385C16.0439 14.5385 16.3422 14.662 16.5666 14.8865C16.791 15.1109 16.9146 15.4092 16.9146 15.7266C16.9146 16.0439 16.791 16.3422 16.5666 16.5666Z" fill="#999999"/>
</svg>
