<svg width="38" height="38" viewBox="0 0 38 38" fill="none" xmlns="http://www.w3.org/2000/svg">
<path d="M28.4828 11.2593H17.0056L15.8115 8.86126C15.6821 8.6009 15.4892 8.38322 15.2535 8.23151C15.0178 8.07981 14.7481 7.99978 14.4733 8H9.51724C8.68048 8 8 8.73089 8 9.62963V28.3704C8 29.2691 8.68048 30 9.51724 30H28.4828C29.3195 30 30 29.2691 30 28.3704V12.8889C30 11.9901 29.3195 11.2593 28.4828 11.2593ZM9.51724 9.62963H14.4733L16.096 12.8889H28.4828V15.3839C28.4729 15.3839 28.4638 15.3806 28.4539 15.3806H9.54683C9.53697 15.3806 9.52786 15.3839 9.51724 15.3839V9.62963ZM9.51724 28.3704V25.9259L9.54683 17.0102L28.4828 17.0412V25.9259H28.4843V28.3704H9.51724Z" fill="black" fill-opacity="0.4"/>
</svg>
