<svg width="38" height="38" viewBox="0 0 38 38" fill="none" xmlns="http://www.w3.org/2000/svg">
<path d="M21.9038 21.8919L12.1307 9.8452C12.0404 9.73387 11.9717 9.6045 11.9287 9.4646C11.8856 9.3247 11.8691 9.17707 11.8801 9.0303C11.8911 8.88353 11.9293 8.74055 11.9926 8.60969C12.0558 8.47882 12.1428 8.36268 12.2486 8.26802C12.4645 8.07485 12.743 7.98002 13.024 8.00401C13.3049 8.028 13.5658 8.16888 13.7501 8.39624L23.6191 20.5603C25.4365 19.7432 27.6059 20.2309 28.9307 21.9154C30.5619 23.9878 30.2971 27.0877 28.3398 28.8392C26.3833 30.5907 23.4745 30.3309 21.8441 28.2576C20.3747 26.3905 20.4447 23.6895 21.9038 21.8919V21.8919ZM23.3833 22.6042C23.0449 22.9093 22.773 23.2895 22.5866 23.7182C22.4001 24.1469 22.3036 24.6139 22.3037 25.0865C22.3037 26.8899 23.6843 28.3523 25.3878 28.3523C27.0905 28.3523 28.471 26.8899 28.471 25.0865C28.471 23.283 27.0905 21.8207 25.3878 21.8207C24.8291 21.8207 24.305 21.9782 23.8532 22.2531C23.8118 22.3073 23.7658 22.3572 23.7157 22.4023C23.6136 22.4928 23.5012 22.5598 23.3833 22.6051V22.6042ZM17.8328 20.5385L16.4248 22.274C16.4158 22.2848 16.4066 22.2955 16.3973 22.3059C17.5571 24.085 17.5162 26.5296 16.1561 28.2576C14.5257 30.33 11.6168 30.5907 9.66034 28.8392C7.70306 27.0877 7.43826 23.987 9.06868 21.9154C10.505 20.0893 12.9337 19.6694 14.829 20.7941L16.248 19.0451C16.5995 19.7225 17.1592 20.25 17.8328 20.5385ZM21.7223 15.7449C21.3577 15.0752 20.7877 14.5602 20.1084 14.2868L24.888 8.3954C25.0725 8.16817 25.3334 8.02744 25.6143 8.00361C25.8953 7.97977 26.1737 8.07475 26.3896 8.26802C26.4953 8.36268 26.5823 8.47882 26.6456 8.60969C26.7089 8.74055 26.7471 8.88353 26.7581 9.0303C26.769 9.17707 26.7525 9.3247 26.7095 9.4646C26.6665 9.6045 26.5978 9.73387 26.5074 9.8452L21.7223 15.7449V15.7449ZM10.6433 27.588C11.9476 28.7554 13.8869 28.5819 14.9735 27.2008C16.061 25.8189 15.885 23.7523 14.5799 22.585C13.2755 21.4176 11.3363 21.5911 10.2489 22.9721C9.16218 24.354 9.33898 26.4206 10.6433 27.588V27.588Z" fill="black" fill-opacity="0.4"/>
</svg>
