<svg width="16" height="16" viewBox="0 0 16 16" fill="none" xmlns="http://www.w3.org/2000/svg">
<path d="M8 1C4.15 1 1 4.15 1 8C1 11.85 4.15 15 8 15C11.85 15 15 11.85 15 8C15 4.15 11.85 1 8 1Z" fill="#FF5050"/>
<path d="M7.99998 11.75C7.59998 11.75 7.24998 11.4 7.24998 11C7.24998 10.6 7.59998 10.25 7.99998 10.25C8.39998 10.25 8.74998 10.6 8.74998 11C8.74998 11.4 8.39998 11.75 7.99998 11.75ZM8.64998 8.85C8.64998 9.35 8.44998 9.75 7.99998 9.75C7.54998 9.75 7.34998 9.35 7.34998 8.85L7.09998 5.15C7.09998 4.65 7.49998 4.25 7.94998 4.25C8.39998 4.25 8.84998 4.65 8.84998 5.15L8.64998 8.85Z" fill="white"/>
</svg>
