<svg width="38" height="38" viewBox="0 0 38 38" fill="none" xmlns="http://www.w3.org/2000/svg">
<path d="M29.6765 29.5987L25.3378 25.2227C24.8084 24.6888 24.8084 23.8136 25.3378 23.2796C25.8672 22.7457 26.735 22.7457 27.2644 23.2796L31.6031 27.6556C32.1325 28.1896 32.1325 29.0648 31.6031 29.5987C31.0736 30.1327 30.2059 30.1327 29.6765 29.5987Z" fill="#999999"/>
<path d="M22.3336 12C18.3834 12 15.1787 15.2322 15.1787 19.2196C15.1787 23.2069 18.3834 26.4392 22.3368 26.4392C26.2901 26.4392 29.4917 23.2069 29.4917 19.2196C29.4917 15.2322 26.287 12 22.3336 12ZM22.3336 24.2717C19.5675 24.2717 17.3246 22.0095 17.3246 19.2196C17.3246 16.4297 19.5675 14.1675 22.3336 14.1675C25.0997 14.1675 27.3458 16.4265 27.3458 19.2196C27.3458 22.0095 25.1029 24.2717 22.3336 24.2717Z" fill="#999999"/>
<path d="M6 9.1C6 8.49249 6.49249 8 7.1 8H30.9C31.5075 8 32 8.49249 32 9.1C32 9.70751 31.5075 10.2 30.9 10.2H7.1C6.49249 10.2 6 9.70751 6 9.1Z" fill="#999999"/>
<path d="M6 16.1C6 15.4925 6.49249 15 7.1 15H11.9C12.5075 15 13 15.4925 13 16.1C13 16.7075 12.5075 17.2 11.9 17.2H7.1C6.49249 17.2 6 16.7075 6 16.1Z" fill="#999999"/>
<path d="M6 22.1C6 21.4925 6.49249 21 7.1 21H11.9C12.5075 21 13 21.4925 13 22.1C13 22.7075 12.5075 23.2 11.9 23.2H7.1C6.49249 23.2 6 22.7075 6 22.1Z" fill="#999999"/>
<path d="M6 28.9C6 28.2925 6.49249 27.8 7.1 27.8H17.9C18.5075 27.8 19 28.2925 19 28.9C19 29.5075 18.5075 30 17.9 30H7.1C6.49249 30 6 29.5075 6 28.9Z" fill="#999999"/>
</svg>
