<svg width="54" height="54" viewBox="0 0 54 54" fill="none" xmlns="http://www.w3.org/2000/svg">
<g filter="url(#filter0_d_1509_2294)">
<path d="M44 27C44 36.3888 36.3888 44 27 44C17.6112 44 10 36.3888 10 27C10 17.6112 17.6112 10 27 10C36.3888 10 44 17.6112 44 27ZM12.38 27C12.38 35.0744 18.9256 41.62 27 41.62C35.0744 41.62 41.62 35.0744 41.62 27C41.62 18.9256 35.0744 12.38 27 12.38C18.9256 12.38 12.38 18.9256 12.38 27Z" fill="white"/>
<path d="M24.049 20.2121C23.8565 20.0917 23.629 20.0195 23.3917 20.0034C23.1545 19.9873 22.9167 20.028 22.7046 20.1209C22.4925 20.2138 22.3145 20.3554 22.1901 20.5299C22.0658 20.7044 22 20.9051 22 21.1097V32.8914C22.0002 33.0959 22.0662 33.2965 22.1906 33.4708C22.3151 33.6452 22.4931 33.7866 22.7052 33.8793C22.9172 33.9721 23.1549 34.0127 23.3921 33.9965C23.6292 33.9804 23.8566 33.9082 24.049 33.7879L33.4682 27.8971C33.6329 27.7942 33.7669 27.6592 33.8594 27.5032C33.9518 27.3472 34 27.1745 34 26.9994C34 26.8243 33.9518 26.6517 33.8594 26.4957C33.7669 26.3397 33.6329 26.2047 33.4682 26.1018L24.049 20.2121Z" fill="white"/>
</g>
<defs>
<filter id="filter0_d_1509_2294" x="0" y="0" width="54" height="54" filterUnits="userSpaceOnUse" color-interpolation-filters="sRGB">
<feFlood flood-opacity="0" result="BackgroundImageFix"/>
<feColorMatrix in="SourceAlpha" type="matrix" values="0 0 0 0 0 0 0 0 0 0 0 0 0 0 0 0 0 0 127 0" result="hardAlpha"/>
<feOffset/>
<feGaussianBlur stdDeviation="5"/>
<feComposite in2="hardAlpha" operator="out"/>
<feColorMatrix type="matrix" values="0 0 0 0 0 0 0 0 0 0 0 0 0 0 0 0 0 0 0.15 0"/>
<feBlend mode="normal" in2="BackgroundImageFix" result="effect1_dropShadow_1509_2294"/>
<feBlend mode="normal" in="SourceGraphic" in2="effect1_dropShadow_1509_2294" result="shape"/>
</filter>
</defs>
</svg>
