<svg width="17" height="17" viewBox="0 0 17 17" fill="none" xmlns="http://www.w3.org/2000/svg">
<path fill-rule="evenodd" clip-rule="evenodd" d="M4.19998 5.5999C4.19998 3.28031 6.08038 1.3999 8.39998 1.3999C10.7196 1.3999 12.6 3.28031 12.6 5.5999H13.3C14.0732 5.5999 14.7 6.2267 14.7 6.9999V13.9999C14.7 14.7731 14.0732 15.3999 13.3 15.3999H3.49998C2.72678 15.3999 2.09998 14.7731 2.09998 13.9999V6.9999C2.09998 6.2267 2.72678 5.5999 3.49998 5.5999H4.19998ZM8.39998 2.7999C9.94637 2.7999 11.2 4.0535 11.2 5.5999H5.59998C5.59998 4.0535 6.85358 2.7999 8.39998 2.7999ZM8.39998 8.3999C8.01338 8.3999 7.69998 8.7133 7.69998 9.0999V11.8999C7.69998 12.2865 8.01338 12.5999 8.39998 12.5999C8.78658 12.5999 9.09998 12.2865 9.09998 11.8999V9.0999C9.09998 8.7133 8.78658 8.3999 8.39998 8.3999Z" fill="#B3B3B3"/>
</svg>
