<svg width="34" height="34" viewBox="0 0 34 34" fill="none" xmlns="http://www.w3.org/2000/svg">
<g clip-path="url(#clip0_1454_1707)">
<circle cx="17" cy="17" r="17" fill="#FFD000"/>
<path d="M24.8 21.2432C24.8 21.9696 24.2089 22.5581 23.4816 22.5581H18.0804C17.719 22.5581 17.1603 22.7005 16.8454 22.869L12.7583 25.0581C12.114 25.4032 11.5917 25.0954 11.5917 24.3577V23.2208C11.5917 22.8548 11.2988 22.5581 10.9251 22.5581H10.2708C9.54142 22.5581 8.95001 21.9649 8.95001 21.2432V10.6646C8.95001 9.93849 9.54243 9.34985 10.2741 9.34985H23.4759C24.2072 9.34985 24.8 9.94306 24.8 10.6646V21.2432H24.8ZM11.5917 21.2372C12.3211 21.2372 12.9125 21.8325 12.9125 22.555V22.8925C12.9125 23.255 13.1693 23.3971 13.4817 23.2126L16.2582 21.5735C16.5727 21.3878 17.122 21.2372 17.4896 21.2372H22.8169C23.1826 21.2372 23.479 20.9436 23.479 20.5762V11.3317C23.479 10.9667 23.1784 10.6707 22.824 10.6707H10.9259C10.564 10.6707 10.2708 10.9643 10.2708 11.3317V20.5762C10.2708 20.9413 10.5636 21.2372 10.9374 21.2372H11.5917ZM12.9125 17.9352C12.9125 17.5704 13.2134 17.2747 13.5745 17.2747H20.1753C20.541 17.2747 20.8375 17.5678 20.8375 17.9352C20.8375 18.2999 20.5363 18.5956 20.1753 18.5956H13.5745C13.2089 18.5956 12.9125 18.3024 12.9125 17.9352ZM12.9125 13.9727C12.9125 13.608 13.2134 13.3124 13.5745 13.3124H20.1753C20.541 13.3124 20.8375 13.6055 20.8375 13.9727C20.8375 14.3374 20.5363 14.6331 20.1753 14.6331H13.5745C13.2089 14.6331 12.9125 14.34 12.9125 13.9727Z" fill="white"/>
</g>
<defs>
<clipPath id="clip0_1454_1707">
<rect width="34" height="34" fill="white"/>
</clipPath>
</defs>
</svg>
