<svg width="34" height="34" viewBox="0 0 34 34" fill="none" xmlns="http://www.w3.org/2000/svg">
<g clip-path="url(#clip0_1454_1714)">
<circle cx="17" cy="17" r="17" fill="#2DC89D"/>
<path d="M16.9375 9.75801C19.2783 9.75801 21.1828 11.6625 21.1828 14.0033C21.1828 16.3441 19.2783 18.2486 16.9375 18.2486C14.5967 18.2486 12.6922 16.3441 12.6922 14.0033C12.6922 11.6625 14.5967 9.75801 16.9375 9.75801M16.9375 8.25977C13.7655 8.25977 11.194 10.8313 11.194 14.0033C11.194 17.1754 13.7655 19.7469 16.9375 19.7469C20.1096 19.7469 22.6811 17.1754 22.6811 14.0033C22.6811 10.8313 20.1096 8.25977 16.9375 8.25977V8.25977Z" fill="white"/>
<path d="M9.07227 25.7401C9.02911 25.7401 8.98516 25.7364 8.94121 25.7286C8.53379 25.6567 8.26172 25.2681 8.3336 24.8606C9.09161 20.5659 13.3322 18.2485 16.9375 18.2485C17.3512 18.2485 17.6867 18.5839 17.6867 18.9978C17.6867 19.4116 17.3514 19.747 16.9375 19.747C14.5481 19.747 10.5 21.206 9.80918 25.1214C9.74512 25.4845 9.42891 25.7401 9.07227 25.7401V25.7401Z" fill="white"/>
<path d="M24.9277 25.7403C24.5709 25.7403 24.2549 25.4847 24.1908 25.1212C23.4998 21.206 19.4518 19.747 17.0625 19.747C16.6488 19.747 16.3133 19.4116 16.3133 18.9978C16.3133 18.5839 16.6486 18.2485 17.0625 18.2485C20.6678 18.2485 24.9086 20.5659 25.6664 24.8606C25.7383 25.2681 25.4662 25.6567 25.0588 25.7286C25.0149 25.7366 24.9709 25.7403 24.9277 25.7403V25.7403Z" fill="white"/>
</g>
<defs>
<clipPath id="clip0_1454_1714">
<rect width="34" height="34" fill="white"/>
</clipPath>
</defs>
</svg>
