<svg width="40" height="40" viewBox="0 0 40 40" fill="none" xmlns="http://www.w3.org/2000/svg">
<path d="M6.40247 0H26.4025L36.4025 10V37.5C36.4025 38.8807 35.2832 40 33.9025 40H6.40247C5.02172 40 3.90247 38.8807 3.90247 37.5V2.5C3.90247 1.11925 5.02172 0 6.40247 0Z" fill="#E8E8E8"/>
<path d="M26.25 0L36.25 10H28.75C27.3693 10 26.25 8.88075 26.25 7.5V0Z" fill="#D0D0D0"/>
<path d="M16.5854 22.561C16.5854 21.9512 16.722 21.4634 16.8586 21.1585C16.9951 20.8537 17.2683 20.5488 17.6098 20.3049C17.9512 20 18.2927 19.8171 18.7708 19.6951C19.1805 19.5732 19.5903 19.5122 20.0683 19.5122C21.0244 19.5122 21.7756 19.7561 22.4586 20.2439C23.0732 20.7317 23.4147 21.3415 23.4147 22.1342C23.4147 22.5 23.2781 22.8049 23.1415 23.1098C23.0049 23.4146 22.6634 23.7805 22.1171 24.2073C21.5708 24.6342 21.3659 24.939 21.161 25.122C20.9561 25.3049 20.8878 25.5488 20.7512 25.7927C20.6147 26.0366 20.6829 26.2195 20.6829 26.8293H19.3171C19.3171 26.2195 19.3854 25.9146 19.4537 25.6098C19.522 25.3049 19.6586 25.061 19.8634 24.8171C20.0683 24.5732 20.2732 24.2683 20.7512 23.8415C21.2293 23.4146 21.5708 23.1098 21.7073 22.9268C21.8439 22.7439 21.9805 22.439 21.9805 22.0122C21.9805 21.5854 21.7756 21.2805 21.4342 20.9756C21.0927 20.6707 20.6147 20.4878 20 20.4878C18.6342 20.4878 17.9512 21.3415 17.9512 22.561H16.5854V22.561ZM20.6829 29.2683H19.3171V28.0488H20.6829V29.2683Z" fill="#ACACAC"/>
</svg>
