<svg width="10" height="10" viewBox="0 0 10 10" fill="none" xmlns="http://www.w3.org/2000/svg">
<path d="M7.67547 5.63322L3.32634 8.83664C3.20395 8.92678 3.05788 8.98209 2.90463 8.99633C2.75138 9.01057 2.59706 8.98317 2.4591 8.91722C2.32114 8.85127 2.20504 8.7494 2.12391 8.62312C2.04279 8.49684 1.99987 8.35118 2 8.20259L2 1.79674C1.99999 1.64821 2.04301 1.50264 2.12419 1.37646C2.20536 1.25028 2.32148 1.14851 2.45941 1.08264C2.59735 1.01677 2.75162 0.989419 2.9048 1.00368C3.05799 1.01795 3.204 1.07325 3.32634 1.16336L7.67547 4.36678C7.77638 4.44114 7.85815 4.53696 7.91443 4.64678C7.97072 4.7566 8 4.87748 8 5C8 5.12252 7.97072 5.2434 7.91443 5.35322C7.85815 5.46304 7.77638 5.55886 7.67547 5.63322V5.63322Z" fill="#999999"/>
</svg>
