<svg width="18" height="18" viewBox="0 0 18 18" fill="none" xmlns="http://www.w3.org/2000/svg">
<path d="M5.57615 4.15848C5.42806 4.06855 5.25308 4.01459 5.07057 4.00257C4.88806 3.99054 4.70512 4.02092 4.54199 4.09035C4.37886 4.15977 4.24189 4.26554 4.14624 4.39594C4.05059 4.52635 3.99997 4.67632 4 4.82926V13.6331C4.00016 13.786 4.0509 13.9358 4.14663 14.0661C4.24236 14.1964 4.37933 14.3021 4.54243 14.3714C4.70553 14.4407 4.88839 14.471 5.07082 14.459C5.25324 14.4469 5.42813 14.3929 5.57615 14.3031L12.8217 9.90113C12.9484 9.82422 13.0515 9.72335 13.1226 9.60677C13.1937 9.49018 13.2308 9.3612 13.2308 9.23035C13.2308 9.09951 13.1937 8.97053 13.1226 8.85394C13.0515 8.73736 12.9484 8.63649 12.8217 8.55958L5.57615 4.15848V4.15848Z" fill="white"/>
</svg>
