<svg width="26" height="26" viewBox="0 0 26 26" fill="none" xmlns="http://www.w3.org/2000/svg">
<path d="M14.0442 13.014L17.6606 9.39756C17.9454 9.11279 17.9454 8.6499 17.6606 8.36396C17.3758 8.0792 16.9129 8.0792 16.627 8.36396L13.0118 11.9815L9.39536 8.36631C9.1106 8.08154 8.6477 8.08154 8.36177 8.36631C8.077 8.65107 8.077 9.11396 8.36177 9.3999L11.9782 13.0151L8.36177 16.6304C8.077 16.9151 8.077 17.378 8.36177 17.664C8.64653 17.9487 9.10942 17.9487 9.39536 17.664L13.0118 14.0476L16.6282 17.664C16.9129 17.9487 17.3758 17.9487 17.6618 17.664C17.9465 17.3792 17.9465 16.9163 17.6618 16.6304L14.0442 13.014Z" fill="black"/>
</svg>
