<svg width="16" height="16" viewBox="0 0 16 16" fill="none" xmlns="http://www.w3.org/2000/svg">
<path d="M4.93533 3.83658C6.23733 2.27324 6.45733 2.07258 7.20866 2.34458L7.27533 2.36924C7.91933 2.61924 7.99266 2.93124 7.99933 4.59524V11.4046C7.99266 13.1239 7.91466 13.3992 7.20866 13.6552L7.13933 13.6792C6.48733 13.8979 6.23066 13.7059 5.16666 12.4406L3.638 10.6072L2.63666 10.4072C2.21921 10.3239 1.84948 10.0839 1.60333 9.73658L1.534 9.62991C1.25444 9.16254 1.09976 8.63113 1.08481 8.08674C1.06987 7.54234 1.19517 7.00325 1.44866 6.52124L1.534 6.36991C1.65346 6.17064 1.81327 5.99855 2.00316 5.86469C2.19305 5.73082 2.40884 5.63813 2.63666 5.59258L3.638 5.39191L4.93533 3.83658ZM13.576 3.75724C14.6955 4.87668 15.3272 6.39321 15.3335 7.97638C15.3397 9.55954 14.72 11.081 13.6093 12.2092C13.5483 12.2732 13.4751 12.3244 13.3941 12.3598C13.3131 12.3952 13.2258 12.4142 13.1374 12.4155C13.049 12.4169 12.9612 12.4007 12.8791 12.3678C12.7971 12.3349 12.7223 12.2861 12.6593 12.224C12.5963 12.162 12.5463 12.088 12.5121 12.0065C12.478 11.9249 12.4604 11.8374 12.4604 11.749C12.4604 11.6605 12.478 11.573 12.5121 11.4915C12.5463 11.4099 12.5963 11.3359 12.6593 11.2739C13.5229 10.3963 14.0047 9.21299 13.9997 7.98175C13.9947 6.75051 13.5034 5.57113 12.6327 4.70058C12.5076 4.57548 12.4373 4.40582 12.4373 4.22891C12.4373 4.052 12.5076 3.88234 12.6327 3.75724C12.7578 3.63215 12.9274 3.56187 13.1043 3.56187C13.2812 3.56187 13.4509 3.63215 13.576 3.75724V3.75724ZM6.65133 3.88191L6.47133 4.08324C6.418 4.14458 6.35799 4.21524 6.28933 4.29658L4.57999 6.34524C4.43861 6.51503 4.24332 6.63126 4.02666 6.67458L2.898 6.89991C2.8555 6.90783 2.81499 6.9241 2.77883 6.94779C2.74267 6.97148 2.71156 7.00211 2.68733 7.03791L2.622 7.15391C2.32866 7.71858 2.34866 8.39658 2.67733 8.94391C2.70118 8.98388 2.73314 9.01841 2.77114 9.04528C2.80915 9.07214 2.85236 9.09076 2.898 9.09991L4.02733 9.32524C4.24333 9.36858 4.43866 9.48524 4.57999 9.65458L6.05266 11.4212C6.23133 11.6352 6.36533 11.7939 6.472 11.9166L6.65133 12.1172L6.65999 11.9066C6.66199 11.8212 6.66399 11.7226 6.66466 11.6066L6.66666 4.66658C6.66666 4.45391 6.66466 4.28724 6.662 4.15191L6.65199 3.88191H6.65133ZM10.8287 5.17124C11.575 5.91756 11.9961 6.9286 12.0002 7.98405C12.0043 9.03949 11.5911 10.0538 10.8507 10.8059C10.7259 10.9287 10.558 10.9975 10.3829 10.9975C10.2079 10.9975 10.0399 10.9287 9.91521 10.8059C9.79049 10.6831 9.71907 10.5162 9.71634 10.3412C9.71362 10.1662 9.77983 9.99718 9.90066 9.87058C10.3941 9.36909 10.6693 8.69294 10.6665 7.98942C10.6636 7.2859 10.3828 6.61202 9.88533 6.11458C9.82339 6.05264 9.77425 5.9791 9.74073 5.89817C9.70721 5.81725 9.68996 5.73051 9.68996 5.64291C9.68996 5.55531 9.70721 5.46857 9.74073 5.38765C9.77425 5.30672 9.82339 5.23318 9.88533 5.17124C9.94727 5.1093 10.0208 5.06017 10.1017 5.02665C10.1827 4.99313 10.2694 4.97587 10.357 4.97587C10.4446 4.97587 10.5313 4.99313 10.6123 5.02665C10.6932 5.06017 10.7667 5.1093 10.8287 5.17124Z" fill="white"/>
</svg>
