<svg width="16" height="16" viewBox="0 0 16 16" fill="none" xmlns="http://www.w3.org/2000/svg">
<g clip-path="url(#clip0_2403_2992)">
<path d="M13.8047 2.19519C13.9296 2.32021 13.9999 2.48975 13.9999 2.66652C13.9999 2.8433 13.9296 3.01284 13.8047 3.13786L3.138 13.8045C3.01227 13.926 2.84386 13.9932 2.66907 13.9916C2.49427 13.9901 2.32706 13.92 2.20345 13.7964C2.07985 13.6728 2.00974 13.5056 2.00822 13.3308C2.0067 13.156 2.07389 12.9876 2.19533 12.8619L3.38467 11.6725C2.9653 11.4426 2.61548 11.1041 2.37187 10.6925C2.12825 10.281 1.99981 9.81146 2 9.33319V6.66652C2 5.95928 2.28095 5.281 2.78105 4.78091C3.28115 4.28081 3.95942 3.99986 4.66667 3.99986H5.092C5.24793 3.99979 5.39891 3.94506 5.51867 3.84519L6.95933 2.64519C8.46667 1.38852 10.6513 2.15252 11.2033 3.85386L12.862 2.19519C12.987 2.07021 13.1566 2 13.3333 2C13.5101 2 13.6796 2.07021 13.8047 2.19519V2.19519ZM10 5.05719V4.69319C10 3.56252 8.68133 2.94519 7.81333 3.66919L6.372 4.86919C6.01291 5.16865 5.56024 5.33282 5.09267 5.33319H4.66667C4.49157 5.33319 4.31819 5.36768 4.15642 5.43468C3.99466 5.50169 3.84767 5.5999 3.72386 5.72371C3.60005 5.84753 3.50183 5.99451 3.43483 6.15628C3.36782 6.31805 3.33333 6.49143 3.33333 6.66652V9.33319C3.33322 9.61306 3.42118 9.88587 3.58474 10.113C3.7483 10.3401 3.97918 10.5099 4.24467 10.5985V10.5992C4.294 10.6192 4.34 10.6439 4.38267 10.6739L10 5.05719ZM6.96 13.3552C8.69667 14.8019 11.3333 13.5672 11.3333 11.3065V8.15586C11.3333 7.97906 11.2631 7.80952 11.138 7.68452C11.013 7.55952 10.8435 7.48929 10.6667 7.48929C10.4899 7.48929 10.3203 7.55952 10.1953 7.68452C10.0703 7.80952 10 7.97906 10 8.15586V11.3065C10 12.4365 8.68133 13.0545 7.81333 12.3305L7.09267 11.7305L7.08467 11.7385C7.02429 11.6665 6.94938 11.6081 6.86484 11.5671C6.7803 11.5261 6.68805 11.5034 6.59414 11.5006C6.50022 11.4977 6.40676 11.5147 6.31989 11.5505C6.23301 11.5863 6.15469 11.6401 6.09005 11.7083C6.0254 11.7765 5.97591 11.8575 5.9448 11.9462C5.91369 12.0349 5.90167 12.1291 5.90954 12.2227C5.9174 12.3164 5.94497 12.4073 5.99043 12.4895C6.03589 12.5717 6.09822 12.6434 6.17333 12.6999L6.95867 13.3545L6.96 13.3552Z" fill="white"/>
</g>
<defs>
<clipPath id="clip0_2403_2992">
<rect width="16" height="16" rx="2" fill="white"/>
</clipPath>
</defs>
</svg>
